<svg class="c-animation__svg c-animation__svg--rel const-site" id="const-site" data-name="Ebene 1" xmlns="http://www.w3.org/2000/svg" viewBox="0 0 780.28 402.98"><defs/><path id="Boden" class="cls-1" d="M60.05 357.67H5.49v-3h54.56Zm215.81 14.48h-87.4v3h87.4Zm-212.37 0h-38.7v3h38.7Zm493.35 0H315.5v3h241.34Zm99.31-17.8h-18.66v3h18.66Zm103 0h-63.32v3h63.28Zm-532.62.32H191v3h35.51Zm127.51 0h-35.56v3H354Zm358.09 17.48H596.19v3h115.9Z"/><path id="Tanne" class="cls-1" d="m698.89 342.71-10.82-14.94h10.82l-20.7-28.58-20.69 28.58h10.82l-10.82 14.94h19.32v11.79h-12.18v3h22.61v-3h-7.43v-11.79Zm-35.52-3 10.82-14.94h-10.82l14.82-20.47L693 324.77h-10.81L693 339.71h-13.18V333h-3v6.75Z"/><g id="JS_Wolke" data-name="JS Wolke"><path id="Wolke" class="cls-1" d="M119.55 80.59h-23a11.83 11.83 0 0 1 0-23.65h.63v-.73a10.71 10.71 0 0 1 21.42 0v.73h1a11.83 11.83 0 0 1 0 23.65Zm-23-20.65a8.83 8.83 0 0 0 0 17.65h23a8.83 8.83 0 0 0 0-17.65h-4.72l.47-1.86a7.71 7.71 0 1 0-14.94 0l.46 1.86ZM94.68 73a9.6 9.6 0 0 1 2.18-6.7 8.65 8.65 0 0 1 6.67-2.56v3a5.79 5.79 0 0 0-4.46 1.59 6.62 6.62 0 0 0-1.4 4.41Z"/><path id="JS" class="cls-2" d="M108 73a3.36 3.36 0 0 1-.89-.1v-1.26a3.21 3.21 0 0 0 .71.09.79.79 0 0 0 .71-.31 1.64 1.64 0 0 0 .22-1v-6.65h1.51v6.68a2.82 2.82 0 0 1-.57 1.9A2.1 2.1 0 0 1 108 73Zm8.27-4.08a1.87 1.87 0 0 1-.69 1.53 3 3 0 0 1-1.94.55 4.51 4.51 0 0 1-2-.43v-1.4a9.2 9.2 0 0 0 1.22.45 3.57 3.57 0 0 0 .92.13 1.25 1.25 0 0 0 .76-.19.69.69 0 0 0 .15-.94 1.3 1.3 0 0 0-.34-.31 8.07 8.07 0 0 0-.93-.49 4.33 4.33 0 0 1-1-.59 2.2 2.2 0 0 1-.52-.66 1.87 1.87 0 0 1-.2-.88 1.83 1.83 0 0 1 .65-1.48 2.61 2.61 0 0 1 1.77-.55 4.52 4.52 0 0 1 1.06.13 7.58 7.58 0 0 1 1.06.38l-.49 1.17a8.09 8.09 0 0 0-.94-.32 2.74 2.74 0 0 0-.74-.1 1 1 0 0 0-.66.2.69.69 0 0 0-.23.53.55.55 0 0 0 .1.34 1 1 0 0 0 .29.29 8.62 8.62 0 0 0 1 .5 3.83 3.83 0 0 1 1.37 1 1.87 1.87 0 0 1 .37 1.14Z"/></g><g id="SEO_Wolke" data-name="SEO Wolke"><path id="Wolke-2" data-name="Wolke" class="cls-1" d="M563.06 123h-48.17a8.2 8.2 0 1 1 0-16.4 12.25 12.25 0 0 1 12.24-11.86 11.88 11.88 0 0 1 4.25.77 18.18 18.18 0 0 1 15.44-8c9.23 0 16.83 6.31 17.63 14.33a10.65 10.65 0 0 1-1.39 21.16Zm-48.18-13.4a5.2 5.2 0 0 0-5.2 5.2 5.2 5.2 0 0 0 5.2 5.2h48.18a7.66 7.66 0 0 0 0-15.31h-1.5v-1.5c0-7-6.6-12.73-14.7-12.73-5.84 0-11.12 3-13.47 7.65l-.68 1.35-1.35-.69a9 9 0 0 0-4.2-1 9.26 9.26 0 0 0-9.24 9.24v2.62Zm39.2-2.16h-3a5.8 5.8 0 0 0-1.58-4.44 6.56 6.56 0 0 0-4.43-1.41l-.25-3a9.56 9.56 0 0 1 6.69 2.18 8.62 8.62 0 0 1 2.57 6.71Z"/><path id="SEO" class="cls-2" d="M529.27 112.54a1.82 1.82 0 0 1-.7 1.52 3 3 0 0 1-1.93.56 4.52 4.52 0 0 1-2-.43v-1.4a9.26 9.26 0 0 0 1.23.45 3.5 3.5 0 0 0 .91.13 1.29 1.29 0 0 0 .77-.19.66.66 0 0 0 .26-.57.7.7 0 0 0-.11-.37 1.35 1.35 0 0 0-.35-.31 8.59 8.59 0 0 0-.92-.49 3.91 3.91 0 0 1-1-.59 2.24 2.24 0 0 1-.53-.66 1.87 1.87 0 0 1-.19-.88 1.85 1.85 0 0 1 .64-1.49 2.67 2.67 0 0 1 1.77-.54 4.61 4.61 0 0 1 1.07.13 7.48 7.48 0 0 1 1.05.38l-.48 1.17a8.14 8.14 0 0 0-1-.32 2.67 2.67 0 0 0-.73-.1 1 1 0 0 0-.66.2.66.66 0 0 0-.23.53.62.62 0 0 0 .09.34.93.93 0 0 0 .3.29 9 9 0 0 0 .95.5 3.88 3.88 0 0 1 1.38 1 1.87 1.87 0 0 1 .41 1.14Zm5.4 2h-4.11v-7.13h4.11v1.24h-2.59v1.56h2.41v1.24h-2.41v1.84h2.59Zm8-3.58a3.86 3.86 0 0 1-.88 2.73 3.82 3.82 0 0 1-5 0 3.93 3.93 0 0 1-.87-2.73 3.85 3.85 0 0 1 .88-2.73 3.3 3.3 0 0 1 2.52-.94 3.26 3.26 0 0 1 2.52 1 3.88 3.88 0 0 1 .8 2.65Zm-5.21 0a3 3 0 0 0 .46 1.81 1.58 1.58 0 0 0 1.35.6c1.21 0 1.82-.8 1.82-2.41s-.61-2.41-1.81-2.41a1.59 1.59 0 0 0-1.36.61 3 3 0 0 0-.49 1.78Z"/></g><g id="UX_Wolke" data-name="UX Wolke"><path id="Gruppe_90" data-name="Gruppe 90" class="cls-1" d="M646.55 158.59h-23a11.83 11.83 0 0 1 0-23.65h.63v-.73a10.71 10.71 0 0 1 21.42 0v.73h1a11.83 11.83 0 0 1 0 23.65Zm-23-20.65a8.83 8.83 0 0 0 0 17.65h23a8.83 8.83 0 0 0 0-17.65h-4.72l.47-1.86a7.71 7.71 0 1 0-14.94 0l.46 1.86Z"/><path id="UX" class="cls-3" d="M632.58 142.18h1.51v4.62a2.63 2.63 0 0 1-.36 1.38 2.29 2.29 0 0 1-1 .92 3.65 3.65 0 0 1-1.58.31 3 3 0 0 1-2.14-.7 2.5 2.5 0 0 1-.76-1.93v-4.6h1.51v4.37a1.84 1.84 0 0 0 .33 1.21 1.41 1.41 0 0 0 1.1.38 1.37 1.37 0 0 0 1.08-.39 1.82 1.82 0 0 0 .33-1.21Zm6.62 3.54 2.24-3.54h-1.63l-1.51 2.56-1.54-2.56h-1.67l2.22 3.45-2.37 3.68h1.62l1.66-2.7 1.66 2.7h1.73Z"/></g><g id="HTML_Wolken" data-name="HTML Wolken"><path id="Wolken" class="cls-1" d="M208.89 174.23c-.8-8-8.4-14.33-17.64-14.33a19.11 19.11 0 0 0-11.25 3.62 11.73 11.73 0 0 0-8.44-3.58h-1v-.73a10.71 10.71 0 0 0-21.42 0v.73h-.63a11.83 11.83 0 1 0-.22 23.65H152a8.18 8.18 0 0 0 3.65 11 8.1 8.1 0 0 0 3.68.87h48.18a10.65 10.65 0 0 0 1.43-21.21Zm-69.2-2.46a8.84 8.84 0 0 1 8.82-8.83h4.31l-.47-1.86a8.41 8.41 0 0 1-.24-1.87 7.71 7.71 0 0 1 15.42 0 7.38 7.38 0 0 1-.24 1.87l-.46 1.86h4.72a8.71 8.71 0 0 1 6.17 2.56l-.06.07a12.81 12.81 0 0 0-.84 1c-.07.09-.14.17-.2.26q-.44.56-.81 1.14a12.28 12.28 0 0 0-3.16-.72h-1.09A12.27 12.27 0 0 0 159.32 179a8.93 8.93 0 0 0-1.16.1h-.21a8 8 0 0 0-2.28.74h-.06a7.83 7.83 0 0 0-1 .64h-6a8.83 8.83 0 0 1-8.82-8.82Zm67.76 20.67h-48.17a5.18 5.18 0 0 1-3.14-9.31c.14-.11.29-.21.44-.31l.38-.2.46-.22c.16-.05.32-.11.49-.15l.41-.11a6.25 6.25 0 0 1 1-.1h3v-2.61a9.25 9.25 0 0 1 9.24-9.25 9.05 9.05 0 0 1 4.2 1l1.35.69.68-1.35a10.44 10.44 0 0 1 .55-1c0-.08.1-.16.16-.24q.24-.36.51-.72l.15-.2c.22-.27.45-.54.69-.8l.05-.05c.28-.29.58-.58.89-.86l.13-.11a15.93 15.93 0 0 1 10.34-3.7c8.1 0 14.7 5.71 14.7 12.73v1.5h1.5a7.65 7.65 0 0 1 0 15.3Z"/><path id="HTML" class="cls-2" d="M178.18 184.52h-1.51v-3.08h-2.83v3.08h-1.51v-7.13h1.51v2.79h2.83v-2.79h1.51Zm4.55 0h-1.51v-5.87h-1.94v-1.26h5.39v1.26h-1.94Zm6.06 0-1.72-5.6q.09 1.71.09 2.28v3.32h-1.35v-7.13h2.06l1.69 5.45 1.79-5.45h2.06v7.13H192v-3.93c0-.21 0-.76.07-1.66l-1.84 5.59Zm6.41 0v-7.13h1.51v5.88h2.9v1.25Z"/></g><g id="CSS_Wolke" data-name="CSS Wolke"><path id="Wolke-3" data-name="Wolke" class="cls-1" d="M85.09 149H36.92a8.2 8.2 0 0 1 0-16.4 12.26 12.26 0 0 1 12.28-11.82 11.89 11.89 0 0 1 4.25.78 18.15 18.15 0 0 1 15.44-8c9.23 0 16.83 6.3 17.63 14.32A10.65 10.65 0 0 1 85.09 149Zm-48.17-13.4a5.2 5.2 0 0 0 0 10.39h48.17a7.65 7.65 0 1 0 .25-15.3h-1.75v-1.5c0-7-6.6-12.73-14.7-12.73-5.83 0-11.12 3-13.47 7.65l-.68 1.35-1.34-.69a9.05 9.05 0 0 0-4.2-1A9.26 9.26 0 0 0 40 133v2.61Z"/><path id="CSS" class="cls-2" d="M59 132.54a1.57 1.57 0 0 0-1.33.65 3 3 0 0 0-.46 1.79c0 1.59.59 2.38 1.79 2.38a5.64 5.64 0 0 0 1.82-.37v1.27a5.14 5.14 0 0 1-2 .36 3 3 0 0 1-2.39-.94 4 4 0 0 1-.82-2.71A4.38 4.38 0 0 1 56 133a2.93 2.93 0 0 1 1.17-1.29 3.41 3.41 0 0 1 1.78-.45 4.76 4.76 0 0 1 2.09.51l-.48 1.23a6.89 6.89 0 0 0-.81-.33 2.25 2.25 0 0 0-.75-.13Zm7.55 4a1.87 1.87 0 0 1-.69 1.53 3 3 0 0 1-1.94.55 4.48 4.48 0 0 1-2-.43v-1.4a9.2 9.2 0 0 0 1.22.45 3.51 3.51 0 0 0 .92.13 1.28 1.28 0 0 0 .76-.19.63.63 0 0 0 .27-.56.64.64 0 0 0-.12-.38 1.3 1.3 0 0 0-.34-.31c-.16-.1-.46-.26-.93-.49a4.11 4.11 0 0 1-1-.59 2.2 2.2 0 0 1-.52-.66 1.87 1.87 0 0 1-.2-.88 1.82 1.82 0 0 1 .64-1.48 2.63 2.63 0 0 1 1.78-.55 4.11 4.11 0 0 1 1.06.14 6.4 6.4 0 0 1 1.06.37L66 133a7.56 7.56 0 0 0-.95-.32 2.62 2.62 0 0 0-.73-.1 1 1 0 0 0-.66.2.69.69 0 0 0-.23.53.62.62 0 0 0 .09.34 1 1 0 0 0 .3.29 7 7 0 0 0 1 .5 3.83 3.83 0 0 1 1.37 1 1.87 1.87 0 0 1 .32 1.1Zm5.51 0a1.85 1.85 0 0 1-.7 1.53 3 3 0 0 1-1.93.55 4.48 4.48 0 0 1-2-.43v-1.4a9.2 9.2 0 0 0 1.22.45 3.5 3.5 0 0 0 .91.13 1.29 1.29 0 0 0 .77-.19.72.72 0 0 0 .15-.94 1.21 1.21 0 0 0-.35-.31c-.15-.1-.46-.26-.92-.49a4.11 4.11 0 0 1-1-.59 2.24 2.24 0 0 1-.53-.66 1.87 1.87 0 0 1-.19-.88 1.82 1.82 0 0 1 .64-1.48 2.63 2.63 0 0 1 1.78-.55 4.11 4.11 0 0 1 1.06.14 6 6 0 0 1 1 .37L71.5 133a7.56 7.56 0 0 0-1-.32 2.67 2.67 0 0 0-.73-.1 1 1 0 0 0-.66.2.69.69 0 0 0-.23.53.62.62 0 0 0 .09.34.93.93 0 0 0 .3.29 7 7 0 0 0 1 .5 3.92 3.92 0 0 1 1.37 1 1.87 1.87 0 0 1 .36 1.1Z"/></g><path id="Wireframe" class="cls-3" d="M561.58 238.48h30.33v89.3h-30.33Zm-161.93-24h192.26v19H399.65Zm107.93 24.05h48.93v41.2h-48.93Zm-45.92 46.25h-62.08v3h62.08Zm8.5 0v3h86.35v-3Zm38.91 8H399.58v3h109.49Zm8.51 0v3h38.93v-3Zm15.63 8v3h23.3v-3Zm-133.63 0v3h23.52v-3Zm32 3h93.1v-3h-93.1Zm48.75 5h-80.75v3h80.78Zm8.51 0v3h67.64v-3Zm-50.11 8h-39.15v3h39.18Zm8.5 0v3h109.28v-3Zm51.82 8h-99.5v3h99.5Zm8.5 0v3h48.93v-3Zm-54-86.3h48.93v41.2h-48.9Z"/><path id="Fahrzeug" class="cls-1" d="M85.79 357.56a5.06 5.06 0 1 0 5.06 5.06 5.07 5.07 0 0 0-5.06-5.06Zm0 7.12a2.06 2.06 0 1 1 2.06-2.06 2.06 2.06 0 0 1-2.06 2.06Zm14-7.12a5.06 5.06 0 1 0 5.06 5.06 5.07 5.07 0 0 0-5.06-5.06Zm0 7.12a2.06 2.06 0 1 1 2.06-2.06 2.06 2.06 0 0 1-2.06 2.06Zm14-7.12a5.06 5.06 0 1 0 5.06 5.06 5.07 5.07 0 0 0-5.06-5.06Zm0 7.12a2.06 2.06 0 1 1 2.06-2.06 2.06 2.06 0 0 1-2.06 2.06Zm14-7.12a5.06 5.06 0 1 0 5.06 5.06 5.07 5.07 0 0 0-5.06-5.06Zm0 7.12a2.06 2.06 0 1 1 2.06-2.06 2.06 2.06 0 0 1-2.06 2.06Zm14-7.12a5.06 5.06 0 1 0 5.06 5.06 5.07 5.07 0 0 0-5.06-5.06Zm0 7.12a2.06 2.06 0 1 1 2.06-2.06 2.06 2.06 0 0 1-2.06 2.06Zm14-7.12a5.06 5.06 0 1 0 5.06 5.06 5.07 5.07 0 0 0-5.06-5.06Zm0 7.12a2.06 2.06 0 1 1 2.06-2.06 2.06 2.06 0 0 1-2.06 2.06Zm14.7-14.86h-29V316.5A13.52 13.52 0 0 0 128 303H91.87a13.51 13.51 0 0 0-13.5 13.5v33.59A12.8 12.8 0 0 0 81 375.42h89.5a12.8 12.8 0 0 0 0-25.6ZM81.37 316.5a10.51 10.51 0 0 1 10.5-10.5H128a10.51 10.51 0 0 1 10.5 10.5v33.32h-27.36v-23.66a9.25 9.25 0 0 0-9.25-9.25h-1.46a9.26 9.26 0 0 0-9.26 9.25v23.66h-9.8Zm26.77 9.66v23.66h-14v-23.66a6.25 6.25 0 0 1 6.26-6.25h1.46a6.25 6.25 0 0 1 6.28 6.25Zm62.35 46.26H81a9.8 9.8 0 1 1 0-19.6h89.5a9.8 9.8 0 0 1 0 19.6Zm-45.73-41.63a3.94 3.94 0 0 0 3.94-3.94v-6a3.94 3.94 0 0 0-7.88 0v6a4 4 0 0 0 3.94 3.94Zm-.94-9.94a1 1 0 0 1 .94-.94 1 1 0 0 1 .94.94v6a.94.94 0 1 1-1.88 0Z"/><path id="Baum_links" data-name="Baum links" class="cls-1" d="M315.5 342.91a17.41 17.41 0 1 0-18.9 17.33v11.87h-12.18v3H307v-3h-7.4v-11.87a17.42 17.42 0 0 0 15.9-17.33Zm-17.4 14.41a14.41 14.41 0 1 1 14.4-14.41 14.41 14.41 0 0 1-14.4 14.41Zm1-5.55a9.42 9.42 0 0 1-6.18-2.2 8.65 8.65 0 0 1-2.56-6.66h3a5.78 5.78 0 0 0 1.59 4.45 6.57 6.57 0 0 0 4.41 1.4l.26 3a3.89 3.89 0 0 1-.47.01Z"/><path id="oben" class="cls-1" d="M275 58.21h-30.72a9.15 9.15 0 0 0-9.14 9.15V98a9.16 9.16 0 0 0 9.14 9.15H275a9.16 9.16 0 0 0 9.1-9.15V67.36a9.15 9.15 0 0 0-9.1-9.15ZM281.1 98a6.15 6.15 0 0 1-6.14 6.15h-30.68a6.16 6.16 0 0 1-6.14-6.15V67.36a6.16 6.16 0 0 1 6.14-6.15H275a6.15 6.15 0 0 1 6.14 6.15Z"/><path id="Krangestell" class="cls-1" d="m248.28 50.54 8.31 7.67h6.06l8.35-7.67v7.67h3v-12.6h-28.72v12.6h3Zm20.35-1.93-9 8.32-9-8.32ZM248.28 317.5v-6.38l6.92 6.38h4.41l-9-8.31h18l-9 8.31h4.42l6.91-6.38v6.38h3V107.18h-3v7.6l-8.23-7.6h-6.22l-8.23 7.6v-7.6h-3V317.5Zm2.34-11.31 9-8.32 9 8.32Zm17.93-162.76-8.93 8.24-8.92-8.24Zm-17.85-3.08 8.92-8.24 8.93 8.24Zm17.93 23.73h-18l9-8.32Zm0 3-9 8.31-9-8.31Zm-.08 20.65H250.7l8.92-8.25Zm0 3.07-8.93 8.2-8.92-8.24Zm.08 20.65h-18l9-8.32Zm0 3-9 8.32-9-8.32Zm-.08 20.65H250.7l8.92-8.25Zm0 3.07-8.93 8.25-8.92-8.25Zm.08 20.65h-18l9-8.32Zm0 3-9 8.32-9-8.32Zm-.08 20.65H250.7l8.92-8.25Zm0 3.07-8.93 8.25-8.92-8.25Zm2.45 18.72-9.13-8.43 9.13-8.43Zm0-23.65-9.13-8.43 9.13-8.43Zm0-23.72-9.13-8.43L271 240Zm0-23.65-9.13-8.43 9.13-8.44Zm0-23.72-9.13-8.43 9.13-8.44Zm0-23.65-9.13-8.43L271 169Zm0-23.72-9.13-8.44 9.13-8.43Zm0-23.65-9.13-8.43 9.13-8.44Zm-11.34-30.11 9 8.31h-18Zm9 11.31-9 8.32-9-8.32Zm-20.35 1.93 9.13 8.44-9.13 8.43Zm0 23.65 9.13 8.43-9.13 8.44Zm0 23.72 9.13 8.44-9.13 8.43Zm0 23.65 9.13 8.44-9.13 8.43Zm0 23.72 9.13 8.44-9.13 8.43Zm0 23.65 9.13 8.44-9.13 8.43Zm0 23.73 9.13 8.43-9.13 8.43Zm0 23.65 9.13 8.43-9.13 8.43ZM235.14 93.06h-10.2l9-8.32 1.19 1.1v-6.29l-1.13 1.1-9-8.32h10.2v-3h-40.35l-.91.85v25.88h41.2Zm-17.86-20.73-9 8.32-9-8.32Zm-20.34 1.93 9.12 8.43-9.12 8.44Zm2.33 18.8 9-8.32 9 8.32Zm20.34-1.93-9.13-8.44 9.13-8.43Zm3-16.87 9.13 8.43-9.13 8.44ZM465 80.65 453.67 70.3l-1.07-1H284.1v3h10.2l-9 8.32-1.19-1.1v6.28l1.19-1.09 9 8.32h-10.2v3h166.57v3H284a9.29 9.29 0 0 1-.88 3h170.53V95.2l2.35-2.14 9-8.32.06.05 2.2-2.05ZM296.63 91.13l-9.13-8.44 9.13-8.43ZM320 72.33l-9 8.32-9-8.32Zm-20.34 1.93 9.13 8.43-9.13 8.44Zm2.34 18.8 9-8.32 9 8.32Zm20.34-1.93-9.13-8.44 9.13-8.43Zm23.34-18.8-9 8.32-9-8.32Zm-20.38 1.93 9.13 8.43-9.13 8.44Zm2.33 18.8 9-8.32 9 8.32ZM348 91.13l-9.12-8.44 9.12-8.43Zm23.34-18.8-9 8.32-9-8.32ZM351 74.26l9.13 8.43-9.13 8.44Zm2.34 18.8 9-8.32 9 8.32Zm20.34-1.93-9.13-8.44 9.13-8.43ZM397 72.33l-9 8.32-9-8.32Zm-20.34 1.93 9.12 8.43-9.12 8.44Zm2.34 18.8 9-8.32 9 8.32Zm20.34-1.93-9.13-8.44 9.13-8.43Zm23.34-18.8-9 8.32-9-8.32Zm-20.34 1.93 9.13 8.43-9.13 8.44Zm2.33 18.8 9-8.32 9 8.32ZM425 91.13l-9.12-8.44 9.12-8.43Zm23.34-18.8-9 8.32-9-8.32ZM428 74.26l9.13 8.43-9.13 8.44Zm2.34 18.8 9-8.32 9 8.32Zm20.34-1.93-9.13-8.44 9.13-8.43Zm3 0V74.26l9.12 8.43Z"/><path id="Fuß" class="cls-1" d="M285.23 354.62h-41a6.16 6.16 0 0 1-6.14-6.15v-21.82a6.16 6.16 0 0 1 6.14-6.15H297a6.14 6.14 0 0 1 6.12 5.73 17.38 17.38 0 0 1 3 1.23v-.81a9.15 9.15 0 0 0-9.12-9.15h-52.72a9.15 9.15 0 0 0-9.14 9.15v21.82a9.15 9.15 0 0 0 9.14 9.15h44.53a17.77 17.77 0 0 1-3.58-3Z"/><path id="Baum_rechts" data-name="Baum rechts" class="cls-1" d="M596.39 342.91a17.41 17.41 0 1 0-18.9 17.33v11.87h-12.18v3h22.61v-3h-7.43v-11.87a17.42 17.42 0 0 0 15.9-17.33ZM579 357.32a14.41 14.41 0 1 1 14.4-14.41 14.41 14.41 0 0 1-14.4 14.41Zm1-5.55a9.42 9.42 0 0 1-6.18-2.2 8.65 8.65 0 0 1-2.56-6.66h3a5.78 5.78 0 0 0 1.59 4.45 6.57 6.57 0 0 0 4.41 1.4l.26 3a3.89 3.89 0 0 1-.52.01Z"/><path id="Macbook" class="cls-1" d="M561.59 343.13H384.25v-129a15 15 0 0 1 15-15h193a15 15 0 0 1 15 15v129h-10.87v-.22a17.22 17.22 0 0 0-1.85-7.78h4.71v-121a7 7 0 0 0-7-7h-193a7 7 0 0 0-7 7v121h171.19a17.36 17.36 0 0 0-1.85 7.78c0 .09.01.14.01.22Zm34.06 4.78a17.44 17.44 0 0 1-8.22 10.19h31.86a9.7 9.7 0 0 0 9.69-9.69v-.5Zm-33.34 0h-53.17v2.56c0 .56-.32 1-.71 1h-25.37c-.39 0-.7-.46-.7-1v-2.56H362.51v.5a9.7 9.7 0 0 0 9.69 9.69h198.33a17.48 17.48 0 0 1-8.22-10.19Z"/></svg>